# xmcd
#
# Track frame offsets:
#	150
#	15218
#	30709
#	44091
#	62814
#	72369
#	82579
#	100101
#	115778
#	128055
#	141757
#	152891
#
# Disc length: 2223 seconds
# Revision: 0
# Processed by: cddbd v1.5.2PL0 Copyright (c) Steve Scherf et al.
# Submitted via: dBpowerAMP V12.0
#
DISCID=9508ad0c
DTITLE=Digger Davis and Tombstone - Light At The River
DYEAR=2007
DGENRE=Bluegrass
TTITLE0=Brighter Mansion
TTITLE1=Paul's Ministry
TTITLE2=Take Me In The Lifeboat
TTITLE3=He Took Your Place
TTITLE4=I'll Fly Away
TTITLE5=Down To The River To Pray
TTITLE6=The Old Crossroads
TTITLE7=Image Of God
TTITLE8=Light At The River
TTITLE9=Looking To, Looking On, Looking Back (At The Cross)
TTITLE10=I've Got A Mansion
TTITLE11=I Dreamed I Drove The Nails
EXTD=
EXTT0=
EXTT1=
EXTT2=
EXTT3=
EXTT4=
EXTT5=
EXTT6=
EXTT7=
EXTT8=
EXTT9=
EXTT10=
EXTT11=
PLAYORDER=
